<svg width="373" height="214" viewBox="0 0 373 214" fill="none" xmlns="http://www.w3.org/2000/svg">
<path d="M186.484 0.21875L169.198 1.28818C146.588 3.54838 125.731 9.14244 106.628 18.0704C97.0766 22.5343 87.9634 27.8318 79.2886 33.9629C74.3044 36.0854 62.3774 47.0587 43.5074 66.8829C8.57177 111.215 -5.29977 160.208 1.89275 213.862L371.033 213.859C378.267 160.205 364.409 111.213 329.46 66.8812C292.959 24.0199 245.3 1.79909 186.484 0.21875Z" fill="url(#paint0_radial_3362_3767)"/>
<path d="M142.242 50.9631C142.292 50.9631 142.342 50.9632 142.392 50.9634C144.488 50.9718 146.153 51.4231 147.388 52.3172C148.591 53.2111 149.189 54.5631 149.182 56.3732C149.175 58.2467 148.597 59.6576 147.45 60.6057C146.314 61.5134 144.681 61.9673 142.551 61.9673C142.531 61.9673 142.511 61.9673 142.491 61.9672L139.014 61.9533L139.057 51.1407C139.47 51.0788 139.978 51.0332 140.582 51.0038C141.108 50.9767 141.662 50.9631 142.242 50.9631ZM138.998 65.9545L142.999 65.9705C144.142 65.975 145.206 66.0904 146.189 66.3167C147.173 66.5111 148.029 66.8639 148.757 67.3749C149.454 67.854 150.007 68.5072 150.416 69.3345C150.826 70.13 151.028 71.1153 151.024 72.2902C151.019 73.4969 150.793 74.4963 150.345 75.2884C149.897 76.0488 149.291 76.6656 148.527 77.1388C147.764 77.5804 146.873 77.8944 145.856 78.0808C144.895 78.263 143.858 78.3541 142.745 78.3541C142.718 78.3541 142.691 78.354 142.664 78.3539C141.997 78.3512 141.314 78.3326 140.616 78.2981C139.949 78.2636 139.393 78.2138 138.949 78.1485L138.998 65.9545ZM141.663 47.1504C140.293 47.1504 138.938 47.1924 137.596 47.2765C136.166 47.366 135.055 47.4886 134.26 47.6442L134.123 81.8923C135.393 82.0561 136.742 82.2044 138.17 82.3372C139.599 82.4381 140.916 82.491 142.123 82.4959C142.166 82.496 142.209 82.4961 142.251 82.4961C144.141 82.4961 145.925 82.3287 147.603 81.9938C149.287 81.6512 150.766 81.0855 152.04 80.2967C153.281 79.5078 154.27 78.4638 155.006 77.1647C155.741 75.8974 156.112 74.3429 156.12 72.5011C156.126 70.9769 155.893 69.6739 155.421 68.5924C154.98 67.5426 154.397 66.667 153.669 65.9655C152.941 65.264 152.118 64.7208 151.199 64.3361C150.311 63.9515 149.423 63.7097 148.534 63.6109C149.233 63.4232 149.917 63.1084 150.586 62.6664C151.254 62.2563 151.844 61.7188 152.355 61.054C152.865 60.4209 153.281 59.6763 153.602 58.8202C153.891 57.9957 154.038 57.0912 154.042 56.1068C154.048 54.4873 153.752 53.1047 153.153 51.9591C152.586 50.8454 151.764 49.9212 150.687 49.1865C149.642 48.4837 148.374 47.9706 146.883 47.647C145.392 47.3235 143.741 47.1582 141.931 47.1509C141.841 47.1506 141.752 47.1504 141.663 47.1504Z" fill="#D6E040"/>
<path d="M105.369 66.1043L105.652 60.8369C107.188 50.2113 111.984 41.6654 120.04 35.1992C128.153 28.7365 137.773 26.0307 148.898 27.0819C159.524 28.6173 168.07 33.4131 174.537 41.4695C176.609 44.0739 178.325 46.9193 179.686 50.0054L181.412 54.7692C182.37 58.0502 182.878 61.4808 182.936 65.0608C182.806 76.0519 179.142 85.2444 171.945 92.6384C164.747 100.032 155.656 103.941 144.673 104.366C133.682 104.236 124.49 100.573 117.096 93.3752C109.703 86.1777 105.794 77.0873 105.369 66.1043Z" fill="#D6E040"/>
<path d="M112.236 65.9014L112.47 61.5671C113.734 52.8236 117.68 45.7912 124.309 40.4699C130.986 35.1523 138.901 32.9259 148.057 33.7909C156.8 35.0543 163.832 39.0009 169.154 45.6306C170.858 47.7738 172.271 50.115 173.39 52.6541L174.811 56.5745C175.599 59.274 176.017 62.097 176.065 65.0432C175.958 74.0875 172.943 81.6517 167.02 87.7358C161.098 93.8202 153.617 97.0372 144.579 97.3869C135.535 97.2799 127.971 94.2651 121.887 88.3425C115.803 82.4196 112.586 74.9392 112.236 65.9014Z" fill="#959F00"/>
<path d="M144.775 50.7717C144.825 50.7717 144.875 50.7718 144.925 50.772C147.021 50.7804 148.687 51.2317 149.921 52.1258C151.125 53.0197 151.723 54.3718 151.715 56.1818C151.708 58.0553 151.131 59.4662 149.984 60.4143C148.847 61.322 147.214 61.7759 145.085 61.7759C145.064 61.7759 145.044 61.7759 145.024 61.7758L141.547 61.7619L141.59 50.9492C142.003 50.8874 142.512 50.8418 143.115 50.8124C143.642 50.7853 144.195 50.7717 144.775 50.7717ZM141.531 65.7631L145.532 65.7791C146.675 65.7836 147.739 65.899 148.722 66.1253C149.706 66.3197 150.562 66.6725 151.29 67.1835C151.987 67.6626 152.54 68.3158 152.95 69.1431C153.359 69.9386 153.562 70.9238 153.557 72.0988C153.552 73.3055 153.326 74.3049 152.878 75.097C152.43 75.8574 151.825 76.4742 151.061 76.9475C150.297 77.389 149.406 77.703 148.389 77.8895C147.428 78.0716 146.391 78.1626 145.279 78.1626C145.251 78.1626 145.224 78.1626 145.197 78.1625C144.53 78.1598 143.847 78.1412 143.149 78.1067C142.482 78.0722 141.927 78.0224 141.482 77.9571L141.531 65.7631ZM144.196 46.959C142.826 46.959 141.471 47.001 140.129 47.0851C138.7 47.1746 137.588 47.2972 136.793 47.4528L136.656 81.7009C137.926 81.8647 139.275 82.013 140.703 82.1458C142.132 82.2467 143.45 82.2996 144.656 82.3045C144.699 82.3046 144.742 82.3047 144.785 82.3047C146.674 82.3047 148.458 82.1373 150.136 81.8024C151.821 81.4598 153.3 80.8941 154.573 80.1053C155.815 79.3164 156.803 78.2724 157.539 76.9733C158.274 75.7061 158.646 74.1515 158.653 72.3097C158.659 70.7854 158.426 69.4825 157.954 68.401C157.514 67.3512 156.93 66.4756 156.202 65.7741C155.475 65.0725 154.651 64.5294 153.732 64.1447C152.844 63.7601 151.956 63.5184 151.067 63.4195C151.766 63.2318 152.45 62.917 153.119 62.475C153.788 62.0649 154.377 61.5274 154.888 60.8626C155.399 60.2295 155.814 59.4849 156.135 58.6288C156.425 57.8043 156.571 56.8998 156.575 55.9154C156.581 54.2959 156.285 52.9133 155.687 51.7677C155.119 50.654 154.297 49.7298 153.221 48.9951C152.176 48.2923 150.907 47.7792 149.416 47.4556C147.925 47.1321 146.274 46.9667 144.464 46.9595C144.375 46.9592 144.285 46.959 144.196 46.959Z" fill="#D6E040"/>
<path d="M137.554 43.8145L142.242 43.8485L142.212 48.032L137.523 47.9983L137.554 43.8145Z" fill="#D6E040"/>
<path d="M144.708 43.8672L149.396 43.9013L149.366 48.0848L144.678 48.0511L144.708 43.8672Z" fill="#D6E040"/>
<path d="M144.193 80.9004L148.881 80.9345L148.84 86.491L144.152 86.4573L144.193 80.9004Z" fill="#D6E040"/>
<path d="M137.227 82.2227L141.916 82.2568L141.885 86.4401L137.197 86.4064L137.227 82.2227Z" fill="#D6E040"/>
<path d="M139.274 46.9635L129.429 46.8926L129.387 52.8067L139.231 52.8781L139.274 46.9635Z" fill="#D6E040"/>
<path d="M139.059 76.7721L129.215 76.7012L129.172 82.6154L139.016 82.6867L139.059 76.7721Z" fill="#D6E040"/>
<path d="M77.9277 195.154L177.968 195.154L278.008 195.155C278.008 201.143 278.008 207.132 278.008 213.121C211.315 213.121 144.621 213.121 77.9277 213.121C77.9277 207.132 77.9277 201.143 77.9277 195.154Z" fill="#3757A7"/>
<path d="M198.436 118.877L214.935 118.877L231.434 118.877C231.434 147.997 231.434 177.117 231.434 206.237C220.435 206.237 209.435 206.237 198.436 206.237C198.436 177.117 198.436 147.997 198.436 118.877Z" fill="#3757A7"/>
<path d="M160.941 140.691L193.94 140.692V206.237L160.941 206.238V140.691Z" fill="#3757A7"/>
<path d="M123.445 158.209L139.945 158.209L156.444 158.209C156.444 174.219 156.444 190.228 156.444 206.237C145.444 206.238 134.445 206.238 123.445 206.238C123.445 190.228 123.445 174.219 123.445 158.209Z" fill="#3757A7"/>
<path d="M235.934 93.2676L252.433 93.2677L268.932 93.2679C268.932 130.924 268.932 168.58 268.932 206.237C257.933 206.237 246.933 206.237 235.934 206.237C235.934 168.58 235.934 130.924 235.934 93.2676Z" fill="#3757A7"/>
<path d="M218.795 79.8614L227.586 92.6166C228.247 89.0255 232.418 81.9564 233.079 78.3652L218.795 79.8614Z" fill="#151C22"/>
<path d="M94.255 156.611L91.2549 154.736L143.072 120.974C143.467 120.716 143.942 120.611 144.409 120.676L168.761 124.112L167.342 124.466L223.793 83.4469C224.665 82.8137 225.884 83.0068 226.518 83.8783C227.151 84.7497 226.958 85.9694 226.086 86.6027L169.635 127.621C169.226 127.919 168.717 128.046 168.216 127.975L143.864 124.539L145.201 124.242L93.3844 158.004C92.7482 158.418 91.9293 158.426 91.2855 158.023C90.6417 157.621 90.2901 156.881 90.3842 156.128L90.3843 156.128C90.5179 155.059 91.4927 154.301 92.5616 154.434C93.6304 154.568 94.3886 155.543 94.255 156.611Z" fill="#151C22"/>
<path d="M85.9473 172.592L102.447 172.592L118.946 172.592C118.946 184.35 118.946 196.108 118.946 207.866C107.946 207.866 96.9468 207.866 85.9473 207.866C85.9473 196.108 85.9473 184.35 85.9473 172.592Z" fill="#3757A7"/>
<path d="M77.9277 212.873L177.986 212.873L278.043 212.873C278.043 213.199 278.043 213.525 278.043 213.851C211.338 213.851 144.633 213.851 77.9277 213.851C77.9277 213.525 77.9277 213.199 77.9277 212.873Z" fill="#0C2746"/>
<path d="M77.9277 195.031L278.073 195.031V196.466L77.9277 196.466V195.031Z" fill="#0C2746"/>
<path d="M235.893 93.2617L237.315 93.2618L238.738 93.2619C238.738 127.357 238.738 161.452 238.738 195.547C237.79 195.547 236.841 195.547 235.893 195.547C235.893 161.452 235.893 127.357 235.893 93.2617Z" fill="#0C2746"/>
<path d="M198.09 118.883L199.513 118.883L200.936 118.883C200.936 144.536 200.936 170.189 200.936 195.843C199.987 195.843 199.038 195.843 198.09 195.843C198.09 170.189 198.09 144.536 198.09 118.883Z" fill="#0C2746"/>
<path d="M160.824 140.664L162.247 140.664L163.67 140.664C163.67 158.994 163.67 177.323 163.67 195.653C162.721 195.653 161.773 195.653 160.824 195.653C160.824 177.323 160.824 158.994 160.824 140.664Z" fill="#0C2746"/>
<path d="M122.732 158.164L124.155 158.164L125.578 158.164C125.578 170.553 125.578 182.941 125.578 195.33C124.63 195.33 123.681 195.33 122.732 195.33C122.732 182.941 122.732 170.553 122.732 158.164Z" fill="#0C2746"/>
<path d="M85.9258 172.557L87.3487 172.557L88.7716 172.557C88.7716 180.554 88.7716 188.551 88.7716 196.548C87.823 196.549 86.8744 196.549 85.9258 196.549C85.9258 188.551 85.9258 180.554 85.9258 172.557Z" fill="#0C2746"/>
<defs>
<radialGradient id="paint0_radial_3362_3767" cx="0" cy="0" r="1" gradientUnits="userSpaceOnUse" gradientTransform="translate(176.845 206.341) rotate(-86.7008) scale(281.589 336.015)">
<stop stop-color="#95FFF2"/>
<stop offset="0.407725" stop-color="#BFFFF7" stop-opacity="0"/>
</radialGradient>
</defs>
</svg>
